<svg width="33.799805" height="29.899902" viewBox="0 0 33.7998 29.8999" fill="none" xmlns="http://www.w3.org/2000/svg" xmlns:xlink="http://www.w3.org/1999/xlink">
	<desc>
			Created with Pixso.
	</desc>
	<defs/>
	<path id="book" d="M16.8999 29.8999C16.8999 28.6179 16.394 27.3887 15.4941 26.4822C14.5938 25.5757 13.373 25.0667 12.1001 25.0667L0.899902 25.0667L0.899902 0.899902L10.5 0.899902C12.1973 0.899902 13.8252 1.57886 15.0254 2.78735C16.2256 3.99609 16.8999 5.63525 16.8999 7.34424L16.8999 29.8999M16.8999 29.8999C16.8999 28.6179 17.4058 27.3887 18.3057 26.4822C19.2061 25.5757 20.4268 25.0667 21.6997 25.0667L32.8999 25.0667L32.8999 0.899902L23.2998 0.899902C21.6025 0.899902 19.9746 1.57886 18.7744 2.78735C17.5742 3.99609 16.8999 5.63525 16.8999 7.34424" stroke="#FFFFFF" stroke-opacity="1.000000" stroke-width="1.800000" stroke-linejoin="round"/>
</svg>
