<svg width="32.799805" height="32.799805" viewBox="0 0 32.7998 32.7998" fill="none" xmlns="http://www.w3.org/2000/svg" xmlns:xlink="http://www.w3.org/1999/xlink">
	<desc>
			Created with Pixso.
	</desc>
	<defs/>
	<rect id="cup icon" width="31.000000" height="31.000000" transform="translate(0.899902 0.899902)" fill="#FFFFFF" fill-opacity="0"/>
	<path id="cup" d="M24.519 11.75L24.519 25.7C24.519 27.3442 23.897 28.9211 22.7896 30.084C21.6821 31.2466 20.1802 31.8999 18.6143 31.8999L6.80469 31.8999C5.23877 31.8999 3.73682 31.2466 2.62939 30.084C1.52197 28.9211 0.899902 27.3442 0.899902 25.7L0.899902 11.75L24.519 11.75L25.9951 11.75C27.561 11.75 29.063 12.4031 30.1704 13.5659C31.2778 14.7285 31.8999 16.3057 31.8999 17.95C31.8999 19.5942 31.2778 21.1711 30.1704 22.334C29.063 23.4966 27.561 24.1499 25.9951 24.1499L24.519 24.1499M6.80469 0.899902L6.80469 5.5498M12.7095 0.899902L12.7095 5.5498M18.6143 0.899902L18.6143 5.5498" stroke="#FFFFFF" stroke-opacity="1.000000" stroke-width="1.800000" stroke-linejoin="round"/>
</svg>
