<svg width="32.799805" height="31.799805" viewBox="0 0 32.7998 31.7998" fill="none" xmlns="http://www.w3.org/2000/svg" xmlns:xlink="http://www.w3.org/1999/xlink">
	<desc>
			Created with Pixso.
	</desc>
	<defs/>
	<path id="settings" d="M16.3999 19.9907C14.0654 19.9907 12.1729 18.1592 12.1729 15.8999C12.1729 13.6406 14.0654 11.8091 16.3999 11.8091C18.7344 11.8091 20.627 13.6406 20.627 15.8999C20.627 18.1592 18.7344 19.9907 16.3999 19.9907ZM26.6665 21.3008C26.7495 21.7432 26.9673 22.1514 27.292 22.4727L27.377 22.5544C27.6387 22.8076 27.8467 23.1086 27.9883 23.4397C28.1304 23.7708 28.2031 24.1255 28.2031 24.4839C28.2031 24.8423 28.1304 25.1973 27.9883 25.5283C27.8467 25.8594 27.6387 26.1602 27.377 26.4136C27.1147 26.667 26.8042 26.8682 26.4619 27.0056C26.1201 27.1428 25.7534 27.2134 25.3828 27.2134C25.0127 27.2134 24.646 27.1428 24.3037 27.0056C23.9614 26.8682 23.6509 26.667 23.3892 26.4136L23.3047 26.3318C22.9722 26.0173 22.5508 25.8064 22.0933 25.7263C21.6362 25.646 21.165 25.7002 20.7397 25.8818C20.3232 26.0547 19.9678 26.3416 19.7173 26.7075C19.4668 27.0732 19.3325 27.502 19.3306 27.9409L19.3306 28.1726C19.3306 28.896 19.0337 29.5896 18.5054 30.1011C17.9771 30.6125 17.2603 30.8999 16.5127 30.8999C15.7651 30.8999 15.0483 30.6125 14.52 30.1011C13.9912 29.5896 13.6943 28.896 13.6943 28.1726L13.6943 28.0498C13.6836 27.5986 13.5327 27.1609 13.2612 26.7937C12.9897 26.4263 12.6104 26.1467 12.1729 25.9907C11.7476 25.8093 11.2764 25.7551 10.8188 25.8354C10.3618 25.9155 9.93994 26.1265 9.60791 26.4409L9.52344 26.5227C9.26172 26.7761 8.95117 26.9773 8.60889 27.1145C8.2666 27.252 7.8999 27.3225 7.52979 27.3225C7.15918 27.3225 6.79248 27.252 6.45068 27.1145C6.1084 26.9773 5.79736 26.7761 5.53564 26.5227C5.27393 26.2693 5.06592 25.9685 4.92432 25.6375C4.78223 25.3064 4.70947 24.9514 4.70947 24.593C4.70947 24.2346 4.78223 23.8799 4.92432 23.5486C5.06592 23.2175 5.27393 22.9167 5.53564 22.6636L5.62012 22.5818C5.94531 22.2603 6.16309 21.8521 6.24609 21.4099C6.3291 20.9675 6.27295 20.5112 6.08545 20.0999C5.90674 19.6965 5.61035 19.3525 5.23193 19.1104C4.854 18.8679 4.41113 18.738 3.95752 18.7363L3.71826 18.7363C2.9707 18.7363 2.25391 18.449 1.7251 17.9375C1.19678 17.426 0.899902 16.7324 0.899902 16.009C0.899902 15.2856 1.19678 14.592 1.7251 14.0806C2.25391 13.5691 2.9707 13.2817 3.71826 13.2817L3.84473 13.2817C4.31152 13.2712 4.76367 13.125 5.14307 12.8623C5.52246 12.5999 5.81152 12.2327 5.97266 11.8091C6.16016 11.3977 6.21631 10.9414 6.1333 10.499C6.05029 10.0566 5.83252 9.64844 5.50781 9.32715L5.42285 9.24536C5.16113 8.99219 4.95312 8.69116 4.81152 8.36011C4.66943 8.02905 4.59668 7.67432 4.59668 7.31592C4.59668 6.95752 4.66943 6.60254 4.81152 6.27148C4.95312 5.94043 5.16113 5.63965 5.42285 5.38623C5.68506 5.13281 5.99561 4.93164 6.33789 4.79419C6.67969 4.65698 7.04639 4.58643 7.41699 4.58643C7.78711 4.58643 8.15381 4.65698 8.49609 4.79419C8.83838 4.93164 9.14893 5.13281 9.41064 5.38623L9.49512 5.46802C9.82764 5.78247 10.249 5.99341 10.7065 6.07349C11.1636 6.15381 11.6348 6.09961 12.0601 5.91797L12.1729 5.91797C12.5894 5.74512 12.9448 5.45825 13.1953 5.09229C13.4458 4.72656 13.5801 4.29785 13.5815 3.85889L13.5815 3.6272C13.5815 2.90381 13.8784 2.21021 14.4072 1.69873C14.9355 1.18726 15.6523 0.899902 16.3999 0.899902C17.1475 0.899902 17.8643 1.18726 18.3926 1.69873C18.9214 2.21021 19.2183 2.90381 19.2183 3.6272L19.2183 3.75C19.2197 4.18872 19.354 4.61743 19.6045 4.98315C19.855 5.34912 20.2104 5.63623 20.627 5.80908C21.0522 5.99048 21.5234 6.04468 21.981 5.96436C22.438 5.88428 22.8599 5.67334 23.1919 5.35889L23.2764 5.2771C23.5381 5.02368 23.8486 4.82251 24.1909 4.6853C24.5332 4.54785 24.8999 4.47729 25.27 4.47729C25.6406 4.47729 26.0073 4.54785 26.3491 4.6853C26.6914 4.82251 27.0024 5.02368 27.2642 5.2771C27.5259 5.53052 27.7339 5.8313 27.8755 6.16235C28.0176 6.49341 28.0903 6.84839 28.0903 7.20679C28.0903 7.56519 28.0176 7.91992 27.8755 8.25122C27.7339 8.58228 27.5259 8.88306 27.2642 9.13623L27.1797 9.21802C26.8545 9.53955 26.6367 9.94775 26.5537 10.3899C26.4707 10.8323 26.5269 11.2886 26.7144 11.7L26.7144 11.8091C26.8931 12.2124 27.1895 12.5564 27.5679 12.7986C27.9458 13.0408 28.3887 13.1709 28.8423 13.1726L29.0815 13.1726C29.8291 13.1726 30.5459 13.46 31.0747 13.9714C31.603 14.4829 31.8999 15.1765 31.8999 15.8999C31.8999 16.6233 31.603 17.3169 31.0747 17.8284C30.5459 18.3398 29.8291 18.6272 29.0815 18.6272L28.9551 18.6272C28.5015 18.6289 28.0586 18.759 27.6807 19.0012C27.3022 19.2434 27.0059 19.5874 26.8271 19.9907C26.6396 20.4021 26.5835 20.8584 26.6665 21.3008Z" stroke="#FFFFFF" stroke-opacity="1.000000" stroke-width="1.800000" stroke-linejoin="round"/>
</svg>
