<svg width="32.799805" height="31.799805" viewBox="0 0 32.7998 31.7998" fill="none" xmlns="http://www.w3.org/2000/svg" xmlns:xlink="http://www.w3.org/1999/xlink">
	<desc>
			Created with Pixso.
	</desc>
	<defs/>
	<path id="Vector" d="M16.3999 9.8999C13.8315 9.8999 11.75 7.88525 11.75 5.3999C11.75 2.91455 13.8315 0.899902 16.3999 0.899902C18.9683 0.899902 21.0498 2.91455 21.0498 5.3999C21.0498 7.88525 18.9683 9.8999 16.3999 9.8999ZM16.3999 30.8999L16.3999 9.8999M5.5498 15.8999L0.899902 15.8999C0.899902 19.8782 2.53271 23.6934 5.43994 26.5066C8.34668 29.3196 12.2891 30.8999 16.3999 30.8999C20.5107 30.8999 24.4531 29.3196 27.3599 26.5066C30.2671 23.6934 31.8999 19.8782 31.8999 15.8999L27.25 15.8999" stroke="#FFFFFF" stroke-opacity="1.000000" stroke-width="1.800000" stroke-linejoin="round" stroke-linecap="round"/>
</svg>
